<svg width="122" height="26" viewBox="0 0 122 26" fill="none" xmlns="http://www.w3.org/2000/svg">
<g id="_Client logo" clip-path="url(#clip0_260_317)">
<path id="Vector" d="M43.0636 14.9753L42.3364 17.0311H42.2758C42.1546 16.5675 41.9324 15.8621 41.5689 15.0156L37.6705 5.24042H33.853V20.8203H36.3778V11.2063C36.3778 10.6017 36.3778 9.91639 36.3576 9.06987C36.3374 8.64662 36.297 8.32414 36.2768 8.08228H36.3374C36.4586 8.68693 36.6 9.13034 36.701 9.41251L41.3871 20.78H43.1646L47.8102 9.31173C47.9112 9.04972 48.0122 8.52569 48.1132 8.08228H48.1738C48.1132 9.23111 48.0728 10.259 48.0526 10.8838V20.7598H50.7391V5.20011H47.0629L43.0636 14.9753ZM53.2841 9.5939H55.9099V20.7598H53.2841V9.5939ZM54.6172 4.87763C54.1728 4.87763 53.8093 5.03887 53.5063 5.32104C53.2033 5.60321 53.0417 5.966 53.0417 6.40941C53.0417 6.83266 53.2033 7.19546 53.5063 7.47763C53.8093 7.7598 54.1728 7.90088 54.6172 7.90088C55.0616 7.90088 55.4453 7.73964 55.7281 7.47763C56.0311 7.19546 56.1927 6.83266 56.1927 6.40941C56.1927 5.98615 56.0311 5.62336 55.7281 5.32104C55.4655 5.03887 55.0818 4.87763 54.6172 4.87763ZM65.2215 9.49313C64.7367 9.39235 64.2318 9.33189 63.747 9.33189C62.5553 9.33189 61.4645 9.59391 60.5556 10.1179C59.6467 10.642 58.9195 11.3675 58.4549 12.2745C57.9702 13.2017 57.7278 14.2699 57.7278 15.4993C57.7278 16.5675 57.9702 17.5148 58.4347 18.3815C58.8993 19.228 59.5457 19.9133 60.4142 20.3769C61.2424 20.8404 62.2119 21.0823 63.3026 21.0823C64.5549 21.0823 65.6255 20.8203 66.4738 20.3365L66.494 20.3164V17.8978L66.393 17.9784C66.0093 18.2606 65.5649 18.5024 65.1205 18.6435C64.6559 18.8048 64.2318 18.8854 63.8682 18.8854C62.8179 18.8854 61.9897 18.5831 61.404 17.9179C60.798 17.273 60.495 16.3862 60.495 15.2776C60.495 14.1288 60.798 13.2218 61.4242 12.5567C62.0503 11.8916 62.8785 11.5489 63.8884 11.5489C64.7367 11.5489 65.6053 11.8311 66.393 12.3955L66.494 12.4761V9.91639L66.4738 9.89623C66.1304 9.75515 65.7467 9.5939 65.2215 9.49313ZM73.8867 9.41251C73.2404 9.41251 72.6344 9.61406 72.1093 10.0373C71.6649 10.4001 71.3619 10.9241 71.0993 11.5489H71.0791V9.5939H68.4533V20.7598H71.0791V15.0559C71.0791 14.0885 71.2811 13.2823 71.7255 12.6978C72.1698 12.0931 72.7354 11.7908 73.4222 11.7908C73.6646 11.7908 73.9069 11.8513 74.2099 11.8916C74.4927 11.9722 74.6947 12.0528 74.8361 12.1536L74.9371 12.2342V9.61406L74.8765 9.5939C74.6947 9.47297 74.3311 9.41251 73.8867 9.41251ZM81.0371 9.35205C79.199 9.35205 77.7245 9.89623 76.6944 10.9644C75.644 12.0327 75.1391 13.504 75.1391 15.3582C75.1391 17.0916 75.6642 18.5024 76.6742 19.5303C77.6841 20.5381 79.0576 21.0621 80.7745 21.0621C82.5722 21.0621 84.0063 20.5179 85.0364 19.4296C86.0867 18.3412 86.5917 16.89 86.5917 15.0962C86.5917 13.3226 86.1069 11.9117 85.1172 10.8838C84.1679 9.85592 82.7742 9.35205 81.0371 9.35205ZM83.1377 17.9381C82.653 18.5629 81.8854 18.8652 80.9361 18.8652C79.9867 18.8652 79.2192 18.5629 78.6738 17.8978C78.1285 17.273 77.8659 16.366 77.8659 15.2172C77.8659 14.028 78.1487 13.121 78.6738 12.4761C79.2192 11.8311 79.9665 11.5086 80.9159 11.5086C81.845 11.5086 82.5722 11.811 83.0973 12.4358C83.6225 13.0606 83.9053 13.9675 83.9053 15.1567C83.8649 16.366 83.6427 17.3133 83.1377 17.9381ZM92.4493 14.2296C91.6212 13.8869 91.096 13.6249 90.8536 13.4032C90.6516 13.2017 90.5506 12.9195 90.5506 12.5567C90.5506 12.2544 90.6718 11.952 90.9748 11.7505C91.2778 11.5489 91.6212 11.4482 92.1261 11.4482C92.5705 11.4482 93.0351 11.5288 93.4794 11.6497C93.9238 11.7706 94.3278 11.952 94.651 12.1939L94.752 12.2745V9.81561L94.6914 9.79546C94.3884 9.67453 93.9844 9.5536 93.4996 9.45282C93.0149 9.3722 92.5705 9.33189 92.2069 9.33189C90.9546 9.33189 89.9245 9.63421 89.1165 10.2993C88.3086 10.9241 87.9248 11.7706 87.9248 12.7582C87.9248 13.2823 88.0056 13.7458 88.1874 14.1288C88.3692 14.5117 88.6318 14.8745 88.9953 15.1769C89.3589 15.459 89.8841 15.7815 90.6112 16.0838C91.2172 16.3458 91.6818 16.5474 91.9645 16.7086C92.2473 16.8699 92.4291 17.0513 92.5705 17.1924C92.6715 17.3536 92.7321 17.5551 92.7321 17.8172C92.7321 18.5629 92.1665 18.9257 91.0152 18.9257C90.5708 18.9257 90.1063 18.8451 89.5609 18.6637C89.0155 18.4823 88.5106 18.2203 88.0864 17.9179L87.9854 17.8373V20.397L88.046 20.4172C88.4298 20.5986 88.8943 20.7195 89.4599 20.8606C90.0255 20.9613 90.5304 21.042 90.9748 21.042C92.3281 21.042 93.439 20.7396 94.2268 20.0745C95.0347 19.4296 95.4589 18.6032 95.4589 17.535C95.4589 16.7893 95.2569 16.1241 94.8126 15.6203C94.2268 15.1365 93.4996 14.6327 92.4493 14.2296ZM102.387 9.35205C100.549 9.35205 99.0745 9.89623 98.0443 10.9644C97.0142 12.0327 96.4891 13.504 96.4891 15.3582C96.4891 17.0916 97.0142 18.5024 98.0241 19.5303C99.0341 20.5381 100.408 21.0621 102.124 21.0621C103.922 21.0621 105.356 20.5179 106.386 19.4296C107.437 18.3412 107.942 16.89 107.942 15.0962C107.942 13.3226 107.457 11.9117 106.467 10.8838C105.518 9.85592 104.124 9.35205 102.387 9.35205ZM104.468 17.9381C103.983 18.5629 103.215 18.8652 102.266 18.8652C101.296 18.8652 100.549 18.5629 100.004 17.8978C99.4583 17.273 99.1957 16.366 99.1957 15.2172C99.1957 14.028 99.4785 13.121 100.004 12.4761C100.549 11.8311 101.296 11.5086 102.246 11.5086C103.155 11.5086 103.902 11.811 104.427 12.4358C104.952 13.0606 105.235 13.9675 105.235 15.1567C105.235 16.366 104.972 17.3133 104.468 17.9381ZM121.98 11.7505V9.5939H119.334V6.28848L119.253 6.30863L116.748 7.05437L116.688 7.07453V9.5939H112.729V8.18305C112.729 7.53809 112.89 7.03422 113.173 6.71173C113.456 6.38925 113.88 6.22801 114.405 6.22801C114.769 6.22801 115.153 6.30863 115.577 6.49003L115.678 6.55049V4.27298L115.617 4.25282C115.254 4.13189 114.769 4.05127 114.143 4.05127C113.355 4.05127 112.668 4.23266 112.042 4.53499C111.416 4.87763 110.951 5.34119 110.608 5.966C110.265 6.57065 110.083 7.25592 110.083 8.04197V9.5939H108.245V11.7303H110.083V20.7598H112.729V11.7505H116.688V17.4947C116.688 19.8528 117.799 21.042 120.021 21.042C120.384 21.042 120.768 20.9815 121.131 20.921C121.515 20.8404 121.798 20.7396 121.96 20.659L121.98 20.6389V18.4823L121.879 18.5629C121.717 18.6637 121.576 18.7443 121.333 18.8048C121.131 18.8652 120.95 18.8854 120.808 18.8854C120.283 18.8854 119.92 18.7644 119.657 18.4621C119.415 18.18 119.293 17.7164 119.293 17.0311V11.7505H121.98Z" fill="#737373"/>
<path id="Vector_2" d="M0 0H12.3818V12.355H0V0Z" fill="#F25022"/>
<path id="Vector_3" d="M13.6744 0H26.0562V12.355H13.6744V0Z" fill="#7FBA00"/>
<path id="Vector_4" d="M0 13.645H12.3818V26.0001H0V13.645Z" fill="#00A4EF"/>
<path id="Vector_5" d="M13.6744 13.645H26.0562V26.0001H13.6744V13.645Z" fill="#FFB900"/>
</g>
<defs>
<clipPath id="clip0_260_317">
<rect width="122" height="26" fill="white"/>
</clipPath>
</defs>
</svg>
