<svg width="84" height="28" viewBox="0 0 84 28" fill="none" xmlns="http://www.w3.org/2000/svg">
<g id="_Client logo" clip-path="url(#clip0_260_310)">
<path id="Vector" d="M35.7462 14.3591C35.7462 18.2456 32.6611 21.1095 28.8749 21.1095C25.0887 21.1095 22.0036 18.2456 22.0036 14.3591C22.0036 10.4452 25.0887 7.60864 28.8749 7.60864C32.6611 7.60864 35.7462 10.4452 35.7462 14.3591ZM32.7383 14.3591C32.7383 11.9304 30.9502 10.2686 28.8749 10.2686C26.7996 10.2686 25.0115 11.9304 25.0115 14.3591C25.0115 16.7634 26.7996 18.4495 28.8749 18.4495C30.9502 18.4495 32.7383 16.7604 32.7383 14.3591Z" fill="#EA4335"/>
<path id="Vector_2" d="M50.5698 14.3591C50.5698 18.2456 47.4846 21.1095 43.6985 21.1095C39.9123 21.1095 36.8271 18.2456 36.8271 14.3591C36.8271 10.4482 39.9123 7.60864 43.6985 7.60864C47.4846 7.60864 50.5698 10.4452 50.5698 14.3591ZM47.5619 14.3591C47.5619 11.9304 45.7738 10.2686 43.6985 10.2686C41.6232 10.2686 39.8351 11.9304 39.8351 14.3591C39.8351 16.7634 41.6232 18.4495 43.6985 18.4495C45.7738 18.4495 47.5619 16.7604 47.5619 14.3591Z" fill="#FBBC05"/>
<path id="Vector_3" d="M64.7757 8.01647V20.1356C64.7757 25.1208 61.7924 27.1569 58.2657 27.1569C54.9458 27.1569 52.9477 24.9686 52.1942 23.1791L54.813 22.1047C55.2793 23.2034 56.422 24.4999 58.2626 24.4999C60.5201 24.4999 61.919 23.1273 61.919 20.5434V19.5726H61.814C61.1408 20.3912 59.8437 21.1065 58.207 21.1065C54.7821 21.1065 51.6445 18.1665 51.6445 14.3834C51.6445 10.573 54.7821 7.60864 58.207 7.60864C59.8407 7.60864 61.1377 8.32386 61.814 9.11821H61.919V8.01951H64.7757V8.01647ZM62.1321 14.3834C62.1321 12.0065 60.5232 10.2686 58.4757 10.2686C56.4004 10.2686 54.6617 12.0065 54.6617 14.3834C54.6617 16.736 56.4004 18.4495 58.4757 18.4495C60.5232 18.4495 62.1321 16.736 62.1321 14.3834Z" fill="#4285F4"/>
<path id="Vector_4" d="M69.4853 0.913086V20.6957H66.5515V0.913086H69.4853Z" fill="#34A853"/>
<path id="Vector_5" d="M80.918 16.5809L83.2527 18.1148C82.4992 19.2135 80.6833 21.1066 77.5457 21.1066C73.6545 21.1066 70.7485 18.1422 70.7485 14.3561C70.7485 10.3418 73.6792 7.60571 77.2091 7.60571C80.7636 7.60571 82.5023 10.3935 83.0705 11.9001L83.3824 12.667L74.2258 16.4044C74.9269 17.7588 76.017 18.4496 77.5457 18.4496C79.0774 18.4496 80.1398 17.707 80.918 16.5809ZM73.7317 14.1522L79.8526 11.6475C79.516 10.8044 78.503 10.217 77.311 10.217C75.7823 10.217 73.6545 11.547 73.7317 14.1522Z" fill="#EA4335"/>
<path id="Vector_6" d="M10.8985 12.6031V9.73915H20.6913C20.787 10.2383 20.8364 10.8287 20.8364 11.4678C20.8364 13.6165 20.2404 16.2735 18.3195 18.1665C16.4511 20.0839 14.0639 21.1065 10.9016 21.1065C5.04009 21.1065 0.111267 16.4013 0.111267 10.6248C0.111267 4.84828 5.04009 0.143066 10.9016 0.143066C14.1442 0.143066 16.4542 1.39698 18.1898 3.03133L16.1392 5.0522C14.8946 3.90176 13.2085 3.00698 10.8985 3.00698C6.61818 3.00698 3.27053 6.40654 3.27053 10.6248C3.27053 14.8431 6.61818 18.2426 10.8985 18.2426C13.6748 18.2426 15.256 17.1439 16.2689 16.1457C17.0904 15.3361 17.6308 14.1796 17.8439 12.6L10.8985 12.6031Z" fill="#4285F4"/>
</g>
<defs>
<clipPath id="clip0_260_310">
<rect width="84" height="28" fill="white"/>
</clipPath>
</defs>
</svg>
