<svg width="112" height="32" viewBox="0 0 112 32" fill="none" xmlns="http://www.w3.org/2000/svg">
<g id="_Client logo" clip-path="url(#clip0_260_412)">
<path id="Vector" fill-rule="evenodd" clip-rule="evenodd" d="M24.4508 4.87952H8.23621V13.7962H16.2146C16.4988 13.7962 16.7294 14.0491 16.7294 14.3608V22.9905H24.9656V5.44519C24.9657 5.37096 24.9525 5.29742 24.9267 5.2288C24.9009 5.16017 24.863 5.0978 24.8152 5.04526C24.7673 4.99272 24.7105 4.95104 24.648 4.9226C24.5855 4.89416 24.5185 4.87952 24.4508 4.87952Z" fill="#8E75FF"/>
<path id="Vector_2" opacity="0.405" fill-rule="evenodd" clip-rule="evenodd" d="M8.23529 4.87952V13.7962H0.628702C0.577594 13.7961 0.527666 13.7793 0.485255 13.748C0.442845 13.7168 0.409864 13.6724 0.390501 13.6205C0.371139 13.5686 0.366266 13.5116 0.376503 13.4567C0.38674 13.4018 0.411624 13.3514 0.447996 13.312L8.23529 4.87952ZM17.168 31.4323C17.1318 31.4713 17.0859 31.4977 17.036 31.5083C16.9862 31.5188 16.9346 31.5129 16.8877 31.4914C16.8409 31.4699 16.8009 31.4338 16.7727 31.3874C16.7446 31.3411 16.7295 31.2867 16.7294 31.231V22.9905H24.9656L17.168 31.4313V31.4323Z" fill="#8E75FF"/>
<path id="Vector_3" opacity="0.405" d="M8.23529 13.7961H16.4725C16.6136 13.7961 16.7294 13.9221 16.7294 14.0779V22.9905H8.75106C8.61452 22.9905 8.48357 22.931 8.38702 22.8251C8.29047 22.7192 8.23623 22.5756 8.23623 22.4258V13.7961H8.23529Z" fill="#8E75FF"/>
<path id="Vector_4" fill-rule="evenodd" clip-rule="evenodd" d="M108.02 4.31689C108.48 4.8165 109.023 5.06527 109.65 5.06527C110.296 5.06527 110.85 4.8165 111.31 4.31689C111.77 3.81727 112 3.22889 112 2.54863C112 1.8694 111.77 1.27482 111.31 0.764887C111.096 0.518992 110.838 0.324145 110.553 0.192531C110.267 0.0609165 109.96 -0.00463237 109.65 -1.62222e-05C109.023 -1.62222e-05 108.48 0.254952 108.02 0.763855C107.56 1.27482 107.33 1.86837 107.33 2.54966C107.33 3.22889 107.56 3.81727 108.02 4.31689ZM58.0809 10.8325C58.0809 10.8841 58.0414 10.9275 57.9934 10.9275H54.7605V17.5546C54.7605 18.1068 54.8885 18.5104 55.1426 18.7654C55.3967 19.0204 55.7694 19.1628 56.2588 19.1948C56.7068 19.2248 57.2527 19.2227 57.8974 19.1897L57.9887 19.1845C58.0004 19.1838 58.0122 19.1857 58.0233 19.1902C58.0343 19.1947 58.0444 19.2015 58.053 19.2104C58.0615 19.2193 58.0683 19.23 58.073 19.2419C58.0776 19.2538 58.08 19.2666 58.08 19.2795V22.8211C58.0801 22.8446 58.0723 22.8674 58.058 22.8849C58.0438 22.9024 58.0241 22.9136 58.0028 22.9161L57.9435 22.9233C55.4117 23.2155 53.6207 22.944 52.5722 22.1099C51.5049 21.2604 50.9722 19.7419 50.9722 17.5546V10.9275H48.5026C48.4796 10.9275 48.4576 10.9175 48.4413 10.8997C48.4251 10.8818 48.416 10.8577 48.416 10.8325V7.07198C48.416 7.02037 48.4546 6.97702 48.5026 6.97702H50.9713V4.34786C50.9713 4.27147 51.0127 4.20334 51.0757 4.17237L54.639 2.47224C54.6522 2.46567 54.6667 2.46285 54.6812 2.46402C54.6957 2.4652 54.7096 2.47033 54.7218 2.47897C54.734 2.4876 54.744 2.49944 54.7509 2.51342C54.7578 2.52739 54.7614 2.54305 54.7614 2.55895V6.97702H57.9934C58.0405 6.97702 58.08 7.01934 58.08 7.07198V10.8325H58.0809ZM64.9515 9.71766C65.3035 8.69779 65.8861 7.93289 66.6983 7.42295C67.4997 6.92257 68.4059 6.65934 69.328 6.65908C69.376 6.65908 69.4155 6.7014 69.4155 6.75508V11.0751C69.4155 11.0967 69.4113 11.1181 69.4033 11.1378C69.3953 11.1576 69.3836 11.1753 69.3689 11.1897C69.3543 11.2042 69.3371 11.2152 69.3184 11.2219C69.2996 11.2287 69.2798 11.2311 69.2602 11.2289C68.1675 11.1215 67.1859 11.3827 66.3162 12.0113C65.4061 12.6689 64.9515 13.7631 64.9515 15.2929V22.8119C64.9515 22.8244 64.9492 22.8368 64.9448 22.8484C64.9404 22.86 64.934 22.8705 64.9258 22.8794C64.9177 22.8882 64.908 22.8952 64.8974 22.8999C64.8868 22.9046 64.8754 22.907 64.864 22.9068H61.248C61.225 22.9068 61.203 22.8968 61.1868 22.879C61.1705 22.8612 61.1614 22.837 61.1614 22.8119V7.07095C61.1614 7.01934 61.2 6.97598 61.248 6.97598H64.864C64.911 6.97598 64.9506 7.01831 64.9506 7.07095V9.7156L64.9515 9.71766ZM82.8677 6.97702C82.8563 6.97688 82.8449 6.97924 82.8343 6.98395C82.8237 6.98866 82.814 6.99563 82.8059 7.00446C82.7978 7.0133 82.7913 7.02381 82.7869 7.0354C82.7825 7.04699 82.7802 7.05943 82.7802 7.07198V8.85779C81.6452 7.30631 80.0489 6.53108 77.9924 6.53108C76.0348 6.53108 74.3548 7.34347 72.9553 8.96824C71.5548 10.593 70.8546 12.5842 70.8546 14.9419C70.8546 17.2996 71.5548 19.2908 72.9553 20.9156C74.3548 22.5404 76.0348 23.3528 77.9924 23.3528C80.0489 23.3528 81.6442 22.5775 82.7802 21.0271V22.8119C82.7802 22.8635 82.8197 22.9068 82.8677 22.9068H86.4828C86.5308 22.9068 86.5703 22.8645 86.5703 22.8119V7.07095C86.5703 7.05839 86.5681 7.04596 86.5636 7.03437C86.5592 7.02278 86.5528 7.01226 86.5446 7.00343C86.5365 6.9946 86.5268 6.98763 86.5162 6.98291C86.5056 6.9782 86.4943 6.97585 86.4828 6.97598H82.8677V6.97702ZM75.7901 18.1915C76.5534 19.0204 77.5219 19.4343 78.6983 19.4343C79.8729 19.4343 80.847 19.0142 81.6207 18.175C82.3943 17.3368 82.7802 16.2591 82.7802 14.9419C82.7802 13.6248 82.3943 12.5471 81.6207 11.7079C80.847 10.8697 79.8729 10.4495 78.6974 10.4495C77.5228 10.4495 76.5534 10.8697 75.7892 11.7089C75.0268 12.5471 74.6437 13.6248 74.6437 14.9419C74.6437 16.2591 75.0259 17.3419 75.7901 18.1915ZM103.414 8.96824C102.013 7.34347 100.324 6.53108 98.3463 6.53108C96.2899 6.53108 94.704 7.30631 93.5877 8.85676V7.07198C93.5877 7.0468 93.5786 7.02264 93.5624 7.00483C93.5461 6.98702 93.5241 6.97702 93.5012 6.97702H89.8852C89.8622 6.97702 89.8402 6.98702 89.8239 7.00483C89.8077 7.02264 89.7986 7.0468 89.7986 7.07198V29.183C89.7986 29.2356 89.8372 29.279 89.8852 29.279H93.5012C93.5482 29.279 93.5877 29.2356 93.5877 29.183V21.0271C94.704 22.5775 96.2899 23.3528 98.3463 23.3528C100.324 23.3528 102.013 22.5404 103.414 20.9156C104.813 19.2908 105.513 17.2996 105.513 14.9419C105.513 12.5842 104.813 10.593 103.414 8.96824ZM94.7332 18.1915C95.4974 19.0204 96.4659 19.4343 97.6414 19.4343C98.816 19.4343 99.7901 19.0142 100.564 18.175C101.337 17.3368 101.724 16.2591 101.724 14.9419C101.724 13.6248 101.337 12.5471 100.564 11.7079C99.7901 10.8697 98.816 10.4495 97.6414 10.4495C96.4659 10.4495 95.4974 10.8697 94.7332 11.7089C93.9699 12.5471 93.5877 13.6248 93.5877 14.9419C93.5877 16.2591 93.9699 17.3419 94.7332 18.1915ZM107.857 22.9068C107.834 22.9068 107.812 22.8968 107.796 22.879C107.779 22.8612 107.77 22.837 107.77 22.8119V7.07095C107.77 7.01934 107.809 6.97598 107.857 6.97598H111.473C111.521 6.97598 111.56 7.01831 111.56 7.07095V22.8129C111.56 22.8381 111.55 22.8622 111.534 22.88C111.518 22.8979 111.496 22.9079 111.473 22.9079H107.857V22.9068ZM40.2946 12.5368C39.775 12.2715 39.5162 11.9257 39.5162 11.5014C39.5162 11.0978 39.6772 10.7788 40.0009 10.5455C40.3237 10.3122 40.7303 10.1946 41.2197 10.1946C42.1581 10.1946 42.8668 10.592 43.3468 11.3858C43.3628 11.4127 43.3869 11.4327 43.415 11.4421C43.443 11.4515 43.4732 11.4499 43.5002 11.4374L46.6983 9.90244C46.7094 9.897 46.7193 9.88907 46.7274 9.87918C46.7355 9.86928 46.7416 9.85763 46.7453 9.84498C46.749 9.83233 46.7503 9.81896 46.749 9.80574C46.7477 9.79253 46.7439 9.77975 46.7379 9.76824C46.701 9.70094 46.6634 9.63418 46.6249 9.56799C46.0781 8.63379 45.3694 7.93702 44.48 7.40747C43.5012 6.82321 42.4141 6.53108 41.2197 6.53108C39.6329 6.53108 38.3068 6.98218 37.2386 7.8854C36.1722 8.7876 35.6386 10.0253 35.6386 11.5964C35.6386 12.6379 35.8983 13.503 36.4169 14.1935C36.9181 14.8696 37.571 15.3911 38.3115 15.7068C39.055 16.0248 39.7995 16.2911 40.544 16.5027C41.2875 16.7153 41.92 16.9548 42.4386 17.2201C42.9572 17.4854 43.2169 17.8302 43.2169 18.2555C43.2169 19.169 42.5412 19.6253 41.1906 19.6253C39.904 19.6253 39.0127 19.1091 38.5167 18.079C38.4968 18.0355 38.4625 18.0021 38.4209 17.9854C38.3793 17.9687 38.3334 17.97 38.2927 17.9891L35.104 19.5221C35.0933 19.5272 35.0838 19.5346 35.0758 19.5438C35.0678 19.5531 35.0616 19.564 35.0576 19.576C35.0536 19.5879 35.0517 19.6006 35.0523 19.6134C35.0528 19.6261 35.0557 19.6386 35.0607 19.65L35.0965 19.7295C36.2108 22.145 38.2419 23.3528 41.1906 23.3528C42.8743 23.3528 44.2795 22.912 45.4052 22.0315C46.5317 21.1489 47.0946 19.8906 47.0946 18.2555C47.0946 17.1716 46.8348 16.2694 46.3162 15.5468C45.8273 14.8495 45.1714 14.3149 44.4216 14.0026C43.6919 13.6995 42.9464 13.4441 42.1892 13.2377C41.4447 13.0353 40.8132 12.802 40.2946 12.5357V12.5368Z" fill="#1D1B84"/>
</g>
<defs>
<clipPath id="clip0_260_412">
<rect width="112" height="32" fill="white"/>
</clipPath>
</defs>
</svg>
