<svg width="90" height="28" viewBox="0 0 90 28" fill="none" xmlns="http://www.w3.org/2000/svg">
<g id="_Client logo" clip-path="url(#clip0_260_298)">
<path id="Vector" d="M25.7996 19.8442C25.6584 19.503 25.5261 19.1442 25.3849 18.838L24.732 17.3767L24.7055 17.3505C22.7643 13.1505 20.6908 8.88047 18.4937 4.68047L18.4055 4.50547C18.1849 4.09422 17.9643 3.63922 17.7349 3.21922C17.4525 2.72047 17.179 2.18672 16.729 1.67922C16.2904 1.14821 15.7383 0.720384 15.1127 0.426617C14.4871 0.13285 13.8036 -0.0195312 13.1114 -0.0195312C12.4192 -0.0195312 11.7356 0.13285 11.11 0.426617C10.4844 0.720384 9.93235 1.14821 9.49372 1.67922C9.07901 2.18672 8.77019 2.72047 8.48783 3.21922C8.26724 3.67422 8.04666 4.12047 7.81724 4.53172L7.72901 4.70672C5.56725 8.90672 3.45842 13.1767 1.51724 17.3767L1.4643 17.4292C1.27019 17.8842 1.04077 18.3567 0.820186 18.8642C0.679009 19.1705 0.537833 19.503 0.396656 19.8705C0.0155087 20.8328 -0.106204 21.877 0.0435143 22.9001C0.193232 23.9233 0.609213 24.8901 1.25046 25.7053C1.89171 26.5205 2.73609 27.1559 3.70038 27.549C4.66468 27.942 5.71561 28.0791 6.7496 27.9467C7.74089 27.8173 8.69543 27.4899 9.55548 26.9842C10.7025 26.3455 11.8055 25.418 13.0408 24.0792C14.2761 25.418 15.4055 26.3455 16.5261 26.993C17.6037 27.6202 18.824 27.9664 20.0731 27.9992C21.5196 28.0052 22.9194 27.492 24.0141 26.5543C25.1088 25.6167 25.8245 24.318 26.029 22.898C26.2653 21.8775 26.1854 20.8101 25.7996 19.8355V19.8442ZM13.129 21.2967C11.6114 19.3717 10.6231 17.6042 10.2878 16.0905C10.1489 15.5295 10.119 14.9475 10.1996 14.3755C10.2614 13.9292 10.429 13.5355 10.6584 13.203C11.1878 12.4417 12.1143 11.9692 13.129 11.9692C13.6109 11.9546 14.0889 12.0589 14.5201 12.2727C14.9513 12.4865 15.3222 12.8032 15.5996 13.1942C15.829 13.5442 15.9967 13.9292 16.0496 14.3755C16.1378 14.883 16.1025 15.4692 15.9614 16.0905C15.6261 17.578 14.6378 19.363 13.129 21.2967ZM24.3702 22.5917C24.2699 23.3127 23.9809 23.995 23.532 24.5707C23.083 25.1464 22.4898 25.5954 21.8114 25.873C21.1408 26.153 20.3996 26.2317 19.6761 26.153C18.9702 26.0655 18.2643 25.838 17.5408 25.418C16.3395 24.6817 15.2592 23.7668 14.3378 22.7055C16.1908 20.4305 17.3114 18.3567 17.7349 16.5105C17.9378 15.6355 17.9643 14.848 17.8761 14.1217C17.7659 13.4333 17.507 12.7767 17.1172 12.1967C16.6722 11.5678 16.0781 11.057 15.3873 10.7091C14.6965 10.3613 13.9301 10.187 13.1555 10.2017C11.5231 10.2017 10.0672 10.9542 9.18489 12.188C8.78769 12.7665 8.53099 13.4284 8.43489 14.1217C8.32019 14.8567 8.34666 15.6705 8.57607 16.5105C8.9996 18.3567 10.1467 20.4567 11.9731 22.723C11.0674 23.8046 9.98462 24.7275 8.77019 25.453C8.03783 25.873 7.34077 26.0917 6.63489 26.1792C5.53714 26.3187 4.42826 26.0228 3.54927 25.3559C2.67028 24.6891 2.09223 23.7051 1.94077 22.618C1.85254 21.918 1.9143 21.218 2.19666 20.4305C2.28489 20.1505 2.41724 19.8705 2.55842 19.538C2.75254 19.083 2.98195 18.6105 3.20254 18.138L3.23783 18.0767C5.14372 13.903 7.22607 9.64172 9.38783 5.46797L9.47607 5.29297C9.69666 4.87297 9.91724 4.42672 10.1467 4.00672C10.3761 3.56047 10.6231 3.13172 10.9408 2.78172C11.2157 2.45624 11.5593 2.19448 11.9473 2.01488C12.3352 1.83528 12.7582 1.74221 13.1864 1.74221C13.6145 1.74221 14.0375 1.83528 14.4255 2.01488C14.8134 2.19448 15.157 2.45624 15.432 2.78172C15.7408 3.13172 15.9967 3.56047 16.2261 4.00672C16.4467 4.42672 16.6672 4.88172 16.8967 5.29297L16.9849 5.46797C19.1378 9.64172 21.2202 13.903 23.1614 18.0767L23.1878 18.103C23.4172 18.558 23.6114 19.0655 23.832 19.503C23.9731 19.8442 24.1143 20.1155 24.2025 20.4042C24.3702 21.1917 24.4584 21.8917 24.3702 22.5917ZM36.6525 21.1042C35.9877 21.1139 35.3291 20.9749 34.7258 20.6977C34.1224 20.4205 33.5897 20.0122 33.1672 19.503C32.2179 18.4179 31.714 17.0189 31.7555 15.583C31.741 14.1158 32.2611 12.6927 33.2202 11.5755C33.6638 11.0598 34.2161 10.6468 34.8381 10.3656C35.4601 10.0844 36.1366 9.94184 36.8202 9.94797C37.4634 9.93051 38.1004 10.0755 38.6716 10.3694C39.2427 10.6633 39.729 11.0964 40.0849 11.628L40.1731 10.2542H42.7496V20.8242H40.1643L40.0761 19.2842C39.7092 19.8518 39.202 20.3169 38.6028 20.6355C38.0037 20.954 37.3323 21.1154 36.6525 21.1042ZM37.3231 18.5842C37.8349 18.5842 38.2849 18.4442 38.7084 18.1905C39.0967 17.9105 39.4143 17.543 39.6614 17.0967C39.882 16.6505 39.9967 16.1167 39.9967 15.5217C40.0311 15.0049 39.9296 14.4882 39.7023 14.0219C39.4749 13.5556 39.1294 13.1559 38.6996 12.8617C38.2866 12.6065 37.8097 12.4713 37.3231 12.4713C36.8365 12.4713 36.3597 12.6065 35.9467 12.8617C35.5584 13.1417 35.2408 13.5092 34.9937 13.9555C34.7604 14.4476 34.6456 14.9868 34.6584 15.5305C34.624 16.0472 34.7255 16.564 34.9528 17.0303C35.1802 17.4965 35.5257 17.8963 35.9555 18.1905C36.3702 18.4442 36.8202 18.5842 37.3231 18.5842ZM47.1614 7.40172C47.1614 7.70797 47.1084 7.98797 46.9672 8.21547C46.8261 8.43422 46.632 8.63547 46.3761 8.77547C46.1202 8.91547 45.8467 8.96797 45.5643 8.96797C45.2819 8.96797 44.9996 8.91547 44.7437 8.77547C44.5017 8.64187 44.2982 8.44909 44.1525 8.21547C44.0159 7.96621 43.9489 7.68527 43.9584 7.40172C43.9584 7.08672 44.0202 6.80672 44.1525 6.58797C44.2937 6.32547 44.4967 6.16797 44.7437 6.02797C44.9996 5.88797 45.2731 5.82672 45.5643 5.82672C45.8452 5.8203 46.1229 5.88627 46.3704 6.01816C46.6178 6.15006 46.8265 6.34338 46.9761 6.57922C47.1045 6.83432 47.1681 7.11668 47.1614 7.40172ZM44.1614 20.7892V10.2367H46.9672V20.8067H44.1525L44.1614 20.7892ZM54.4672 13.0017V13.0367C54.3349 12.9755 54.1584 12.9492 54.0261 12.923C53.8496 12.888 53.7084 12.888 53.5408 12.888C52.7555 12.888 52.1643 13.1155 51.7761 13.588C51.3525 14.0692 51.1584 14.743 51.1584 15.6092V20.798H48.3437V10.228H50.929L51.0172 11.8292C51.2996 11.2692 51.6349 10.8492 52.1114 10.5342C52.5853 10.2282 53.1433 10.0753 53.7084 10.0967C53.9114 10.0967 54.1055 10.1142 54.2731 10.1492C54.3614 10.1755 54.4143 10.1755 54.4672 10.2017V13.0017ZM55.5967 20.7892V5.89672H58.4025V11.5842C58.7996 11.0767 59.2496 10.683 59.8143 10.3767C60.7083 9.94205 61.7239 9.81875 62.6972 10.0267C63.6706 10.2347 64.5448 10.7618 65.179 11.523C66.1305 12.6102 66.6345 14.0128 66.5908 15.4517C66.6053 16.9189 66.0852 18.342 65.1261 19.4592C64.6824 19.9749 64.1302 20.3879 63.5082 20.6691C62.8862 20.9503 62.2096 21.0928 61.5261 21.0867C60.8829 21.1042 60.2458 20.9591 59.6747 20.6653C59.1036 20.3714 58.6172 19.9383 58.2614 19.4067L58.1731 20.7805L55.5967 20.8067V20.7892ZM61.0231 18.5842C61.5261 18.5842 61.9761 18.4442 62.3996 18.1905C62.7878 17.9105 63.1055 17.543 63.3525 17.0967C63.582 16.6505 63.6878 16.1167 63.6878 15.5217C63.6878 14.9355 63.582 14.4017 63.3525 13.9555C63.1208 13.5252 62.7953 13.1515 62.3996 12.8617C61.9866 12.6065 61.5097 12.4713 61.0231 12.4713C60.5365 12.4713 60.0597 12.6065 59.6467 12.8617C59.2496 13.1417 58.9408 13.5092 58.6849 13.9555C58.4516 14.4476 58.3368 14.9868 58.3496 15.5305C58.3152 16.0472 58.4166 16.564 58.644 17.0303C58.8713 17.4965 59.2168 17.8963 59.6467 18.1905C60.0614 18.4442 60.5114 18.5842 61.0231 18.5842ZM67.6496 20.798V10.228H70.2349L70.3231 11.6017C70.648 11.0751 71.1089 10.6442 71.658 10.3534C72.2072 10.0627 72.8247 9.9227 73.4467 9.94797C74.1579 9.93579 74.857 10.1318 75.4565 10.5116C76.056 10.8913 76.5293 11.4379 76.8172 12.083C77.1261 12.748 77.2937 13.5705 77.2937 14.4892V20.8242H74.479V14.8567C74.479 14.1217 74.3114 13.5442 73.9761 13.1155C73.6408 12.6955 73.182 12.468 72.5996 12.468C72.1761 12.468 71.8055 12.5555 71.479 12.748C71.1702 12.9492 70.9143 13.203 70.7202 13.5617C70.5239 13.9244 70.4266 14.3316 70.4378 14.743V20.798H67.6496ZM78.6967 20.798V5.88797H81.5114V11.5755C81.8926 11.0651 82.3886 10.65 82.9599 10.3629C83.5312 10.0758 84.1621 9.92477 84.8025 9.92172C85.4674 9.91207 86.126 10.051 86.7293 10.3282C87.3327 10.6054 87.8653 11.0138 88.2878 11.523C89.2325 12.6102 89.7329 14.0085 89.6908 15.443C89.7061 16.9103 89.1859 18.3336 88.2261 19.4505C87.7824 19.9662 87.2302 20.3792 86.6082 20.6604C85.9862 20.9415 85.3096 21.0841 84.6261 21.078C83.9829 21.0954 83.3458 20.9504 82.7747 20.6565C82.2036 20.3626 81.7172 19.9295 81.3614 19.398L81.282 20.7717L78.6967 20.798ZM84.1496 18.5842C84.6614 18.5842 85.1114 18.4442 85.5261 18.1905C85.9231 17.9105 86.2319 17.543 86.4878 17.0967C86.7084 16.6505 86.8231 16.1167 86.8231 15.5217C86.8575 15.0049 86.7561 14.4882 86.5287 14.0219C86.3014 13.5556 85.9559 13.1559 85.5261 12.8617C85.1131 12.6065 84.6362 12.4713 84.1496 12.4713C83.663 12.4713 83.1861 12.6065 82.7731 12.8617C82.3849 13.1417 82.0673 13.5092 81.8202 13.9555C81.5739 14.4432 81.4584 14.9856 81.4849 15.5305C81.4505 16.0472 81.5519 16.564 81.7793 17.0303C82.0066 17.4965 82.3521 17.8963 82.782 18.1905C83.1967 18.4442 83.6202 18.5842 84.1496 18.5842Z" fill="#FF385C"/>
</g>
<defs>
<clipPath id="clip0_260_298">
<rect width="90" height="28" fill="white"/>
</clipPath>
</defs>
</svg>
