<svg width="32" height="33" viewBox="0 0 32 33" fill="none" xmlns="http://www.w3.org/2000/svg">
<g id="Base feature icon" clip-path="url(#clip0_260_572)">
<path id="Vector" d="M24 13.8333H32L28 8.5L24 13.8333ZM24 19.1667H32L28 24.5L24 19.1667Z" fill="#C4B5FD"/>
<path id="Vector_2" d="M1.33333 0.5H9.33333V32.5H1.33333C0.979711 32.5 0.640572 32.3595 0.390523 32.1095C0.140475 31.8594 0 31.5203 0 31.1667V1.83333C0 1.47971 0.140475 1.14057 0.390523 0.890523C0.640572 0.640475 0.979711 0.5 1.33333 0.5Z" fill="#7C3AED"/>
<path id="Vector_3" d="M12 0.5H20C20.3536 0.5 20.6928 0.640475 20.9428 0.890523C21.1929 1.14057 21.3333 1.47971 21.3333 1.83333V31.1667C21.3333 31.5203 21.1929 31.8594 20.9428 32.1095C20.6928 32.3595 20.3536 32.5 20 32.5H12V0.5Z" fill="#1DB5BE"/>
</g>
<defs>
<clipPath id="clip0_260_572">
<rect width="32" height="32" fill="white" transform="translate(0 0.5)"/>
</clipPath>
</defs>
</svg>
