<svg width="30" height="31" viewBox="0 0 30 31" fill="none" xmlns="http://www.w3.org/2000/svg">
<g id="Group">
<path id="Vector" d="M11 12.8333H1.66668C1.31305 12.8333 0.973915 12.6928 0.723867 12.4428C0.473818 12.1927 0.333344 11.8536 0.333344 11.5V2.16665C0.333344 1.81302 0.473818 1.47388 0.723867 1.22384C0.973915 0.973788 1.31305 0.833313 1.66668 0.833313H11C11.3536 0.833313 11.6928 0.973788 11.9428 1.22384C12.1929 1.47388 12.3333 1.81302 12.3333 2.16665V11.5C12.3333 11.8536 12.1929 12.1927 11.9428 12.4428C11.6928 12.6928 11.3536 12.8333 11 12.8333Z" fill="#7C3AED"/>
<path id="Vector_2" d="M11 30.1666H1.66668C1.31305 30.1666 0.973915 30.0262 0.723867 29.7761C0.473818 29.5261 0.333344 29.1869 0.333344 28.8333V19.5C0.333344 19.1463 0.473818 18.8072 0.723867 18.5571C0.973915 18.3071 1.31305 18.1666 1.66668 18.1666H11C11.3536 18.1666 11.6928 18.3071 11.9428 18.5571C12.1929 18.8072 12.3333 19.1463 12.3333 19.5V28.8333C12.3333 29.1869 12.1929 29.5261 11.9428 29.7761C11.6928 30.0262 11.3536 30.1666 11 30.1666Z" fill="#7C3AED"/>
<path id="Vector_3" d="M16.3333 2.16663H29.6667V4.83329H16.3333V2.16663Z" fill="#1DB5BE"/>
<path id="Vector_4" d="M29.6667 19.5H16.3333V22.1667H29.6667V19.5Z" fill="#1DB5BE"/>
<path id="Vector_5" d="M29.6667 26.1666H16.3333V28.8333H29.6667V26.1666Z" fill="#C4B5FD"/>
<path id="Vector_6" d="M29.6667 8.83331H16.3333V11.5H29.6667V8.83331Z" fill="#C4B5FD"/>
</g>
</svg>
