<svg width="28" height="33" viewBox="0 0 28 33" fill="none" xmlns="http://www.w3.org/2000/svg">
<g id="Group">
<path id="Vector" d="M26 32.5H14C13.6464 32.5 13.3072 32.3595 13.0572 32.1095C12.8071 31.8594 12.6667 31.5203 12.6667 31.1667V28.5C12.6667 28.1464 12.8071 27.8073 13.0572 27.5572C13.3072 27.3072 13.6464 27.1667 14 27.1667H26C26.3536 27.1667 26.6928 27.3072 26.9428 27.5572C27.1928 27.8073 27.3333 28.1464 27.3333 28.5V31.1667C27.3333 31.5203 27.1928 31.8594 26.9428 32.1095C26.6928 32.3595 26.3536 32.5 26 32.5Z" fill="#C4B5FD"/>
<path id="Vector_2" d="M26 0.5H1.99999C1.64637 0.5 1.30723 0.640475 1.05718 0.890523C0.807131 1.14057 0.666656 1.47971 0.666656 1.83333V4.5C0.666656 4.85362 0.807131 5.19276 1.05718 5.44281C1.30723 5.69286 1.64637 5.83333 1.99999 5.83333H26C26.3536 5.83333 26.6928 5.69286 26.9428 5.44281C27.1929 5.19276 27.3333 4.85362 27.3333 4.5V1.83333C27.3333 1.47971 27.1929 1.14057 26.9428 0.890523C26.6928 0.640475 26.3536 0.5 26 0.5Z" fill="#1DB5BE"/>
<path id="Vector_3" d="M26 8.5H1.99999C1.64637 8.5 1.30723 8.64047 1.05718 8.89052C0.807131 9.14057 0.666656 9.47971 0.666656 9.83333V23.1667C0.666656 23.5203 0.807131 23.8594 1.05718 24.1095C1.30723 24.3595 1.64637 24.5 1.99999 24.5H26C26.3536 24.5 26.6928 24.3595 26.9428 24.1095C27.1929 23.8594 27.3333 23.5203 27.3333 23.1667V9.83333C27.3333 9.47971 27.1929 9.14057 26.9428 8.89052C26.6928 8.64047 26.3536 8.5 26 8.5Z" fill="#7C3AED"/>
</g>
</svg>
