<svg width="30" height="31" viewBox="0 0 30 31" fill="none" xmlns="http://www.w3.org/2000/svg">
<g id="Group">
<path id="Vector" d="M5.66665 0.833313H1.66665C1.31302 0.833313 0.973885 0.973788 0.723836 1.22384C0.473788 1.47388 0.333313 1.81302 0.333313 2.16665V28.8333C0.333313 29.1869 0.473788 29.5261 0.723836 29.7761C0.973885 30.0262 1.31302 30.1666 1.66665 30.1666H5.66665V0.833313Z" fill="#C4B5FD"/>
<path id="Vector_2" d="M8.33331 30.1666H21.6666V0.833313H8.33331V30.1666ZM15 24.8333C14.6464 24.8333 14.3072 24.6928 14.0572 24.4428C13.8071 24.1927 13.6666 23.8536 13.6666 23.5C13.6666 23.1464 13.8071 22.8072 14.0572 22.5572C14.3072 22.3071 14.6464 22.1666 15 22.1666C15.3536 22.1666 15.6927 22.3071 15.9428 22.5572C16.1928 22.8072 16.3333 23.1464 16.3333 23.5C16.3333 23.8536 16.1928 24.1927 15.9428 24.4428C15.6927 24.6928 15.3536 24.8333 15 24.8333ZM15 6.16665C15.3536 6.16665 15.6927 6.30712 15.9428 6.55717C16.1928 6.80722 16.3333 7.14636 16.3333 7.49998C16.3333 7.8536 16.1928 8.19274 15.9428 8.44279C15.6927 8.69284 15.3536 8.83331 15 8.83331C14.6464 8.83331 14.3072 8.69284 14.0572 8.44279C13.8071 8.19274 13.6666 7.8536 13.6666 7.49998C13.6666 7.14636 13.8071 6.80722 14.0572 6.55717C14.3072 6.30712 14.6464 6.16665 15 6.16665ZM15 14.1666C15.3536 14.1666 15.6927 14.3071 15.9428 14.5572C16.1928 14.8072 16.3333 15.1464 16.3333 15.5C16.3333 15.8536 16.1928 16.1927 15.9428 16.4428C15.6927 16.6928 15.3536 16.8333 15 16.8333C14.6464 16.8333 14.3072 16.6928 14.0572 16.4428C13.8071 16.1927 13.6666 15.8536 13.6666 15.5C13.6666 15.1464 13.8071 14.8072 14.0572 14.5572C14.3072 14.3071 14.6464 14.1666 15 14.1666Z" fill="#7C3AED"/>
<path id="Vector_3" d="M28.3333 0.833313H24.3333V30.1666H28.3333C28.6869 30.1666 29.0261 30.0262 29.2761 29.7761C29.5262 29.5261 29.6666 29.1869 29.6666 28.8333V2.16665C29.6666 1.81302 29.5262 1.47388 29.2761 1.22384C29.0261 0.973788 28.6869 0.833313 28.3333 0.833313Z" fill="#1DB5BE"/>
</g>
</svg>
