<svg width="30" height="30" viewBox="0 0 30 30" fill="none" xmlns="http://www.w3.org/2000/svg">
<g id="Group">
<path id="Vector" d="M29.6667 6.99992V1.66659C29.6667 1.31296 29.5262 0.973824 29.2762 0.723775C29.0261 0.473727 28.687 0.333252 28.3333 0.333252H1.66668C1.31305 0.333252 0.973915 0.473727 0.723867 0.723775C0.473818 0.973824 0.333344 1.31296 0.333344 1.66659V6.99992H29.6667Z" fill="#1DB5BE"/>
<path id="Vector_2" d="M0.333344 9.6665V28.3332C0.333344 28.6868 0.473818 29.0259 0.723867 29.276C0.973915 29.526 1.31305 29.6665 1.66668 29.6665H8.33334V9.6665H0.333344Z" fill="#C4B5FD"/>
<path id="Vector_3" d="M11 29.6665H28.3333C28.687 29.6665 29.0261 29.526 29.2761 29.276C29.5262 29.0259 29.6667 28.6868 29.6667 28.3332V9.6665H11V29.6665Z" fill="#7C3AED"/>
</g>
</svg>
