<svg width="28" height="32" viewBox="0 0 28 32" fill="none" xmlns="http://www.w3.org/2000/svg">
<g id="Group">
<path id="Vector" d="M26 32H14C13.6463 32 13.3072 31.8595 13.0571 31.6094C12.8071 31.3594 12.6666 31.0202 12.6666 30.6666V28C12.6666 27.6463 12.8071 27.3072 13.0571 27.0571C13.3072 26.8071 13.6463 26.6666 14 26.6666H26C26.3536 26.6666 26.6927 26.8071 26.9428 27.0571C27.1928 27.3072 27.3333 27.6463 27.3333 28V30.6666C27.3333 31.0202 27.1928 31.3594 26.9428 31.6094C26.6927 31.8595 26.3536 32 26 32Z" fill="#C4B5FD"/>
<path id="Vector_2" d="M26 0H1.99996C1.64634 0 1.3072 0.140475 1.05715 0.390523C0.807101 0.640572 0.666626 0.979711 0.666626 1.33333V4C0.666626 4.35362 0.807101 4.69276 1.05715 4.94281C1.3072 5.19286 1.64634 5.33333 1.99996 5.33333H26C26.3536 5.33333 26.6927 5.19286 26.9428 4.94281C27.1928 4.69276 27.3333 4.35362 27.3333 4V1.33333C27.3333 0.979711 27.1928 0.640572 26.9428 0.390523C26.6927 0.140475 26.3536 0 26 0Z" fill="#1DB5BE"/>
<path id="Vector_3" d="M26 8H1.99996C1.64634 8 1.3072 8.14047 1.05715 8.39052C0.807101 8.64057 0.666626 8.97971 0.666626 9.33333V22.6667C0.666626 23.0203 0.807101 23.3594 1.05715 23.6095C1.3072 23.8595 1.64634 24 1.99996 24H26C26.3536 24 26.6927 23.8595 26.9428 23.6095C27.1928 23.3594 27.3333 23.0203 27.3333 22.6667V9.33333C27.3333 8.97971 27.1928 8.64057 26.9428 8.39052C26.6927 8.14047 26.3536 8 26 8Z" fill="#7C3AED"/>
</g>
</svg>
