<svg width="30" height="30" viewBox="0 0 30 30" fill="none" xmlns="http://www.w3.org/2000/svg">
<g id="Group">
<path id="Vector" d="M5.66665 0.333374H1.66665C1.31302 0.333374 0.973885 0.473849 0.723836 0.723897C0.473788 0.973946 0.333313 1.31309 0.333313 1.66671V28.3334C0.333313 28.687 0.473788 29.0261 0.723836 29.2762C0.973885 29.5262 1.31302 29.6667 1.66665 29.6667H5.66665V0.333374Z" fill="#C4B5FD"/>
<path id="Vector_2" d="M8.33331 29.6667H21.6666V0.333374H8.33331V29.6667ZM15 24.3334C14.6464 24.3334 14.3072 24.1929 14.0572 23.9429C13.8071 23.6928 13.6666 23.3537 13.6666 23C13.6666 22.6464 13.8071 22.3073 14.0572 22.0572C14.3072 21.8072 14.6464 21.6667 15 21.6667C15.3536 21.6667 15.6927 21.8072 15.9428 22.0572C16.1928 22.3073 16.3333 22.6464 16.3333 23C16.3333 23.3537 16.1928 23.6928 15.9428 23.9429C15.6927 24.1929 15.3536 24.3334 15 24.3334ZM15 5.66671C15.3536 5.66671 15.6927 5.80718 15.9428 6.05723C16.1928 6.30728 16.3333 6.64642 16.3333 7.00004C16.3333 7.35366 16.1928 7.6928 15.9428 7.94285C15.6927 8.1929 15.3536 8.33337 15 8.33337C14.6464 8.33337 14.3072 8.1929 14.0572 7.94285C13.8071 7.6928 13.6666 7.35366 13.6666 7.00004C13.6666 6.64642 13.8071 6.30728 14.0572 6.05723C14.3072 5.80718 14.6464 5.66671 15 5.66671ZM15 13.6667C15.3536 13.6667 15.6927 13.8072 15.9428 14.0572C16.1928 14.3073 16.3333 14.6464 16.3333 15C16.3333 15.3537 16.1928 15.6928 15.9428 15.9429C15.6927 16.1929 15.3536 16.3334 15 16.3334C14.6464 16.3334 14.3072 16.1929 14.0572 15.9429C13.8071 15.6928 13.6666 15.3537 13.6666 15C13.6666 14.6464 13.8071 14.3073 14.0572 14.0572C14.3072 13.8072 14.6464 13.6667 15 13.6667Z" fill="#7C3AED"/>
<path id="Vector_3" d="M28.3333 0.333374H24.3333V29.6667H28.3333C28.6869 29.6667 29.0261 29.5262 29.2761 29.2762C29.5262 29.0261 29.6666 28.687 29.6666 28.3334V1.66671C29.6666 1.31309 29.5262 0.973946 29.2761 0.723897C29.0261 0.473849 28.6869 0.333374 28.3333 0.333374Z" fill="#1DB5BE"/>
</g>
</svg>
