<svg width="86" height="24" viewBox="0 0 86 24" fill="none" xmlns="http://www.w3.org/2000/svg">
<g id="Layer 2">
<g id="Group">
<path id="Vector" d="M9.31334 3.97266V10.7424H2.99819V3.97266H0V20.1327H2.99819V13.5828H9.31334V20.1327H12.3115V3.97266H9.31334Z" fill="#33475B"/>
<path id="Vector_2" d="M21.9069 14.9089C21.9069 15.5566 21.6455 16.1777 21.1804 16.6356C20.7152 17.0936 20.0843 17.3508 19.4265 17.3508C18.7687 17.3508 18.1378 17.0936 17.6726 16.6356C17.2074 16.1777 16.9461 15.5566 16.9461 14.9089V7.9873H14.1022V14.9089C14.1022 16.2978 14.6626 17.6298 15.6601 18.6119C16.6577 19.5939 18.0106 20.1457 19.4214 20.1457C20.8321 20.1457 22.185 19.5939 23.1826 18.6119C24.1801 17.6298 24.7405 16.2978 24.7405 14.9089V7.9873H21.9069V14.9089Z" fill="#33475B"/>
<path id="Vector_3" d="M42.9781 8.70035C42.9781 7.28161 43.9315 6.83183 44.9759 6.83183C45.8176 6.83183 46.9297 7.46238 47.6568 8.22743L49.5195 6.06678C48.5896 4.82882 46.7034 3.97266 45.1595 3.97266C42.0747 3.97266 39.8433 5.75151 39.8433 8.70035C39.8433 14.1714 46.6359 12.4359 46.6359 15.4976C46.6359 16.442 45.7045 17.2764 44.6381 17.2764C42.9561 17.2764 42.4111 16.4665 41.6384 15.6104L39.5715 17.7262C40.8936 19.3243 42.5242 20.1356 44.4779 20.1356C47.4086 20.1356 49.7663 18.3351 49.7663 15.5207C49.7663 9.44659 42.9737 11.3339 42.9737 8.70035" fill="#33475B"/>
<path id="Vector_4" d="M84.9995 17.5512C83.319 17.5512 82.8416 16.8353 82.8416 15.7391V10.887H85.4535V8.42844H82.8416V5.18457L79.958 6.45869V16.3421C79.958 18.8701 81.7296 20.1443 84.1593 20.1443C84.5403 20.1511 84.9212 20.1211 85.2963 20.0546L85.9999 17.5049C85.6826 17.5266 85.3183 17.5483 84.9995 17.5483" fill="#33475B"/>
<path id="Vector_5" d="M32.7318 8.06838C31.323 8.06838 30.3403 8.47042 29.3899 9.38877V4.06958H26.5415V13.9285C26.5415 17.6192 29.2518 20.1472 32.297 20.1472C35.6756 20.1472 38.6474 17.5744 38.6474 14.1092C38.6474 10.6875 35.9121 8.06982 32.7318 8.06982V8.06838ZM32.7142 17.3256C32.075 17.3256 31.4502 17.139 30.9187 16.7894C30.3872 16.4398 29.973 15.9429 29.7284 15.3615C29.4838 14.7801 29.4198 14.1404 29.5445 13.5232C29.6692 12.906 29.977 12.3391 30.429 11.8942C30.8809 11.4492 31.4568 11.1462 32.0837 11.0234C32.7106 10.9006 33.3604 10.9636 33.9509 11.2044C34.5414 11.4453 35.0462 11.8531 35.4013 12.3763C35.7564 12.8995 35.9459 13.5147 35.9459 14.1439C35.9459 14.9878 35.6054 15.797 34.9994 16.3937C34.3933 16.9904 33.5713 17.3256 32.7142 17.3256Z" fill="#33475B"/>
<path id="Vector_6" d="M63.6596 13.9618C63.6596 10.4909 60.6938 7.92383 57.3092 7.92383C54.264 7.92383 51.5538 10.4518 51.5538 14.1426V24.0072H54.4021V18.6808C55.3511 19.5977 56.3353 20.0012 57.7426 20.0012C60.9229 20.0012 63.6582 17.385 63.6582 13.9618H63.6596ZM60.9626 13.9271C60.9626 14.5564 60.773 15.1715 60.4179 15.6947C60.0628 16.2179 59.5581 16.6258 58.9676 16.8666C58.377 17.1074 57.7272 17.1704 57.1003 17.0476C56.4734 16.9249 55.8976 16.6218 55.4456 16.1769C54.9937 15.7319 54.6859 15.165 54.5612 14.5478C54.4365 13.9306 54.5005 13.2909 54.7451 12.7095C54.9897 12.1281 55.4039 11.6312 55.9354 11.2816C56.4668 10.932 57.0916 10.7454 57.7308 10.7454C58.5879 10.7454 59.4099 11.0806 60.016 11.6773C60.6221 12.274 60.9626 13.0832 60.9626 13.9271Z" fill="#33475B"/>
</g>
<path id="Vector_7" d="M72.8615 7.78787V4.97063C73.2397 4.79667 73.5599 4.52054 73.7848 4.17438C74.0098 3.82823 74.1302 3.42628 74.1322 3.01535V2.95027C74.1322 2.37493 73.9 1.82315 73.4868 1.41632C73.0736 1.00949 72.5131 0.780939 71.9287 0.780939H71.8626C71.2782 0.780939 70.7177 1.00949 70.3045 1.41632C69.8913 1.82315 69.6591 2.37493 69.6591 2.95027V3.01535C69.6611 3.42628 69.7815 3.82823 70.0065 4.17438C70.2314 4.52054 70.5516 4.79667 70.9298 4.97063V7.78787C69.8429 7.95157 68.8192 8.3951 67.9625 9.07356L60.1152 3.05584C60.1707 2.8574 60.2003 2.6528 60.2033 2.44698C60.2042 1.96352 60.0594 1.49067 59.7873 1.08823C59.5151 0.685791 59.1279 0.371847 58.6745 0.186108C58.2211 0.000369021 57.722 -0.0488204 57.2402 0.0447614C56.7584 0.138343 56.3156 0.370492 55.9679 0.711844C55.6201 1.0532 55.383 1.48842 55.2865 1.96245C55.1901 2.43649 55.2386 2.92805 55.4259 3.37496C55.6132 3.82186 55.9309 4.20404 56.3389 4.47314C56.7469 4.74224 57.2267 4.88618 57.7178 4.88675C58.1472 4.88486 58.5686 4.77217 58.94 4.55991L66.6683 10.4793C65.9739 11.5118 65.6116 12.7264 65.6286 13.9647C65.6456 15.203 66.0412 16.4075 66.7638 17.4211L64.4134 19.7351C64.2233 19.6753 64.0253 19.6436 63.8258 19.6411C63.4227 19.6414 63.0287 19.7593 62.6936 19.98C62.3585 20.2007 62.0974 20.5142 61.9433 20.8809C61.7891 21.2477 61.7489 21.6511 61.8276 22.0404C61.9063 22.4296 62.1005 22.7872 62.3855 23.0678C62.6706 23.3485 63.0338 23.5396 63.4291 23.6171C63.8245 23.6946 64.2344 23.655 64.6069 23.5033C64.9794 23.3515 65.2978 23.0944 65.522 22.7646C65.7461 22.4347 65.8659 22.0468 65.8662 21.6499C65.8637 21.4534 65.8315 21.2585 65.7707 21.0714L68.0961 18.782C68.8544 19.3565 69.7361 19.7525 70.6739 19.9397C71.6116 20.1268 72.5803 20.1003 73.506 19.8619C74.4316 19.6236 75.2896 19.1799 76.0142 18.5647C76.7388 17.9495 77.3107 17.1793 77.6862 16.3129C78.0618 15.4465 78.2309 14.507 78.1807 13.5664C78.1305 12.6257 77.8623 11.7088 77.3966 10.886C76.9309 10.0631 76.2801 9.35614 75.494 8.81913C74.7079 8.28212 73.8074 7.92936 72.8615 7.78787ZM71.8979 17.0523C71.2618 17.0518 70.6401 16.8656 70.1115 16.5173C69.5829 16.169 69.171 15.6742 68.9279 15.0955C68.6848 14.5168 68.6215 13.8801 68.7458 13.266C68.8701 12.6518 69.1766 12.0878 69.6265 11.6451C70.0764 11.2023 70.6495 10.9009 71.2734 10.7787C71.8972 10.6566 72.5439 10.7193 73.1316 10.9589C73.7193 11.1984 74.2216 11.6042 74.5752 12.1248C74.9287 12.6454 75.1176 13.2574 75.1179 13.8837C75.1179 14.7237 74.7789 15.5293 74.1756 16.1232C73.5723 16.7172 72.754 17.0509 71.9008 17.0509" fill="#FF7A59"/>
</g>
</svg>
